<svg xmlns="http://www.w3.org/2000/svg"  viewBox="0 0 100 100" width="500px" height="500px"><circle cx="52" cy="52" r="44" opacity=".35"/><circle cx="50" cy="50" r="44" fill="#f2f2f2"/><path fill="#f2f2f2" d="M50,91C27.393,91,9,72.607,9,50S27.393,9,50,9s41,18.393,41,41S72.607,91,50,91z"/><circle cx="50.026" cy="50.026" r="38.026" fill="#27b0c1"/><path fill="#40396e" d="M50,89c-21.505,0-39-17.495-39-39s17.495-39,39-39s39,17.495,39,39S71.505,89,50,89z M50,14 c-19.851,0-36,16.149-36,36s16.149,36,36,36s36-16.149,36-36S69.851,14,50,14z"/><path fill="#f2f2f2" d="M50,22.389c15.225,0,27.611,12.386,27.611,27.611S65.225,77.611,50,77.611 S22.389,65.225,22.389,50S34.775,22.389,50,22.389 M50,19.389c-16.906,0-30.611,13.705-30.611,30.611S33.094,80.611,50,80.611 S80.611,66.906,80.611,50S66.906,19.389,50,19.389L50,19.389z"/><circle cx="49.5" cy="34.5" r="5.5" fill="#f2f2f2"/><rect width="9" height="14" x="45" y="45" fill="#f2f2f2" transform="rotate(-180 49.5 52)"/><path fill="#f2f2f2" d="M49.5,46.493c-5.11,0-10.22-0.508-15.294-1.522l0.588-2.941c9.758,1.951,19.654,1.951,29.412,0 l0.588,2.941C59.72,45.985,54.61,46.493,49.5,46.493z"/><path fill="#f2f2f2" d="M54.562,71.426l-3.29-11.103C51.041,59.544,50.312,59,49.5,59c-0.813,0-1.541,0.544-1.771,1.323 l-3.29,11.103l-2.877-0.852l3.29-11.103C45.457,57.428,47.368,56,49.5,56s4.043,1.428,4.648,3.472l3.29,11.103L54.562,71.426z"/></svg>