<svg xmlns="http://www.w3.org/2000/svg"  viewBox="0 0 64 64" width="512px" height="512px"><rect width="58" height="46" x="3" y="9" fill="#c5e4fa" rx="2" ry="2"/><path fill="#ced8ed" d="M5,9H59a2,2,0,0,1,2,2V21a0,0,0,0,1,0,0H3a0,0,0,0,1,0,0V11A2,2,0,0,1,5,9Z"/><path fill="#e3f2ff" d="M61 21L61 37.68 43.68 55 24.43 55 58.43 21 61 21zM54.52 21L20.52 55 12.82 55 46.82 21 54.52 21zM42.4 21L8.4 55 7.12 55 41.12 21 42.4 21z"/><path fill="#c5e4fa" d="M27 13H57V17H27z"/><path fill="#8d6c9f" d="M59,8H5a3,3,0,0,0-3,3V53a3,3,0,0,0,3,3H59a3,3,0,0,0,3-3V11A3,3,0,0,0,59,8Zm1,45a1,1,0,0,1-1,1H5a1,1,0,0,1-1-1V22H60Zm0-33H4V11a1,1,0,0,1,1-1H59a1,1,0,0,1,1,1Z"/><path fill="#ed7899" d="M8 13A2 2 0 1 0 8 17A2 2 0 1 0 8 13Z"/><path fill="#ffeb9b" d="M14 13A2 2 0 1 0 14 17A2 2 0 1 0 14 13Z"/><path fill="#72caaf" d="M20 13A2 2 0 1 0 20 17A2 2 0 1 0 20 13Z"/><path fill="#8d6c9f" d="M17 52a1 1 0 0 0 1-1V49a1 1 0 0 0-2 0v2A1 1 0 0 0 17 52zM12 52a1 1 0 0 0 1-1V49a1 1 0 0 0-2 0v2A1 1 0 0 0 12 52zM7 52a1 1 0 0 0 1-1V49a1 1 0 0 0-2 0v2A1 1 0 0 0 7 52zM22 52a1 1 0 0 0 1-1V49a1 1 0 0 0-2 0v2A1 1 0 0 0 22 52zM27 52a1 1 0 0 0 1-1V49a1 1 0 0 0-2 0v2A1 1 0 0 0 27 52zM32 52a1 1 0 0 0 1-1V49a1 1 0 0 0-2 0v2A1 1 0 0 0 32 52zM37 52a1 1 0 0 0 1-1V49a1 1 0 0 0-2 0v2A1 1 0 0 0 37 52zM42 52a1 1 0 0 0 1-1V49a1 1 0 0 0-2 0v2A1 1 0 0 0 42 52zM47 52a1 1 0 0 0 1-1V49a1 1 0 0 0-2 0v2A1 1 0 0 0 47 52zM52 52a1 1 0 0 0 1-1V49a1 1 0 0 0-2 0v2A1 1 0 0 0 52 52zM57 52a1 1 0 0 0 1-1V49a1 1 0 0 0-2 0v2A1 1 0 0 0 57 52zM56 12H28a2 2 0 0 0-2 2v2a2 2 0 0 0 2 2H56a2 2 0 0 0 2-2V14A2 2 0 0 0 56 12zM28 16V14H56v2z"/><path fill="#fff8f8" d="M19.66 25.83L20.9 28.1 23.17 29.34 20.9 30.57 19.66 32.84 18.43 30.57 16.16 29.34 18.43 28.1 19.66 25.83zM50.58 25L51.44 26.56 53 27.42 51.44 28.27 50.58 29.84 49.73 28.27 48.16 27.42 49.73 26.56 50.58 25zM33.81 42.54L34.39 43.61 35.46 44.19 34.39 44.77 33.81 45.84 33.23 44.77 32.16 44.19 33.23 43.61 33.81 42.54z"/></svg>