<svg xmlns="http://www.w3.org/2000/svg"  viewBox="0 0 48 48" width="480px" height="480px"><path d="M 7.5 7 C 5.5850452 7 4 8.5850452 4 10.5 L 4 11.552734 A 1.50015 1.50015 0 1 0 7 11.552734 L 7 10.5 C 7 10.204955 7.2049548 10 7.5 10 L 30.5 10 C 30.795045 10 31 10.204955 31 10.5 L 31 14.830078 A 1.50015 1.50015 0 1 0 34 14.830078 L 34 10.5 C 34 8.5850452 32.414955 7 30.5 7 L 7.5 7 z M 5.4765625 14.96875 A 1.50015 1.50015 0 0 0 4 16.488281 L 4 25.5 C 4 25.676544 4.075602 25.830048 4.1015625 26 L 2.4765625 26 C 0.75824708 26 -0.482957 27.832167 0.15429688 29.427734 A 1.50015 1.50015 0 0 0 0.15625 29.427734 C 1.2593919 32.18496 3.9393048 34 6.9082031 34 L 29.001953 34 L 29.001953 37.337891 C 29.001953 39.409145 30.791061 40.998047 32.832031 40.998047 L 41.107422 40.998047 C 43.148392 40.998047 44.9375 39.409145 44.9375 37.337891 L 44.9375 29.722656 A 1.50015 1.50015 0 1 0 41.9375 29.722656 L 41.9375 37.337891 C 41.9375 37.644637 41.630452 37.998047 41.107422 37.998047 L 32.832031 37.998047 C 32.309002 37.998047 32.001953 37.644637 32.001953 37.337891 L 32.001953 21.662109 C 32.001953 21.355363 32.309002 21 32.832031 21 L 33.056641 21 A 1.50015 1.50015 0 0 0 33.126953 21.169922 L 33.626953 22.169922 A 1.50015 1.50015 0 0 0 34.96875 23 L 38.96875 23 A 1.50015 1.50015 0 0 0 40.310547 22.169922 L 40.810547 21.169922 A 1.50015 1.50015 0 0 0 40.880859 21 L 41.107422 21 C 41.630452 21 41.9375 21.355363 41.9375 21.662109 L 41.9375 23.978516 A 1.50015 1.50015 0 1 0 44.9375 23.978516 L 44.9375 21.662109 C 44.9375 19.590855 43.148392 18 41.107422 18 L 32.832031 18 C 30.791061 18 29.001953 19.590855 29.001953 21.662109 L 29.001953 31 L 6.9082031 31 C 5.4643326 31 4.2749545 30.164712 3.4921875 29 L 7.5 29 L 20.488281 29 L 25.212891 29 A 1.50015 1.50015 0 1 0 25.212891 26 L 20.488281 26 L 7.5 26 C 7.2049548 26 7 25.795045 7 25.5 L 7 16.488281 A 1.50015 1.50015 0 0 0 5.4765625 14.96875 z"/></svg>