<svg xmlns="http://www.w3.org/2000/svg"  viewBox="0 0 40 40" width="480px" height="480px"><path fill="#98ccfd" d="M16.5 28.5H23.5V34.5H16.5z"/><path fill="#4788c7" d="M23,29v5h-6v-5H23 M24,28h-8v7h8V28L24,28z"/><path fill="#fff" d="M1.5 4.5H38.5V30.5H1.5z"/><path fill="#4788c7" d="M38,5v25H2V5H38 M39,4H1v27h38V4L39,4z"/><path fill="#98ccfd" d="M1.5 26.5H38.5V30.5H1.5z"/><path fill="#4788c7" d="M38,27v3H2v-3H38 M39,26H1v5h38V26L39,26z"/><path fill="#98ccfd" d="M9.5,36.5V36c0-1.378,1.122-2.5,2.5-2.5h16c1.378,0,2.5,1.122,2.5,2.5v0.5H9.5z"/><path fill="#4788c7" d="M28,34c1.103,0,2,0.897,2,2H10c0-1.103,0.897-2,2-2H28 M28,33H12c-1.657,0-3,1.343-3,3v1h22v-1 C31,34.343,29.657,33,28,33L28,33z"/><path fill="#fff" d="M36.5,29h-2c-0.276,0-0.5-0.224-0.5-0.5v0c0-0.276,0.224-0.5,0.5-0.5h2c0.276,0,0.5,0.224,0.5,0.5v0 C37,28.776,36.776,29,36.5,29z"/><g><path fill="#b6dcfe" d="M6.251,22.5c-0.221,0-0.442-0.096-0.593-0.256c-0.11-0.117-0.166-0.251-0.158-0.378L5.502,9.167 c-0.01-0.181,0.04-0.316,0.146-0.428C5.789,8.589,6.015,8.5,6.251,8.5h7.499c0.414,0,0.75,0.299,0.75,0.667v12.667 c0,0.368-0.336,0.667-0.75,0.667H6.251z"/><path fill="#4788c7" d="M13.75,9C13.893,9,14,9.088,14,9.167v12.667C14,21.912,13.893,22,13.75,22H6.252 C6.117,22,6.012,21.905,6,21.897l0.002-0.032v-0.032V9.167l0-0.042L6.001,9.096C6.009,9.073,6.1,9,6.252,9H13.75 M13.75,8H6.252 c-0.69,0-1.289,0.486-1.25,1.167v12.667C4.963,22.441,5.561,23,6.252,23h7.499c0.69,0,1.25-0.522,1.25-1.167V9.167 C15,8.522,14.44,8,13.75,8L13.75,8z"/></g><g><path fill="#dff0fe" d="M5.5 11.5H14.5V19.5H5.5z"/><path fill="#4788c7" d="M14,12v7H6v-7H14 M15,11H5v9h10V11L15,11z"/></g><g><path fill="#b6dcfe" d="M20.25,22.5c-0.207,0-0.411-0.092-0.562-0.251c-0.129-0.138-0.198-0.309-0.189-0.469L19.5,9.25 c-0.013-0.264,0.087-0.422,0.174-0.514C19.816,8.586,20.026,8.5,20.25,8.5h13.5c0.414,0,0.75,0.336,0.75,0.75v12.5 c0,0.414-0.336,0.75-0.75,0.75H20.25z"/><path fill="#4788c7" d="M33.75,9C33.888,9,34,9.112,34,9.25v12.5c0,0.138-0.112,0.25-0.25,0.25h-13.5 c-0.067,0-0.143-0.036-0.198-0.095c-0.042-0.045-0.055-0.084-0.054-0.096L20,21.78v-0.03V9.25V9.223l-0.001-0.027 c-0.003-0.051,0.008-0.085,0.038-0.117C20.074,9.041,20.149,9,20.25,9H33.75 M33.75,8h-13.5C19.56,8,18.961,8.521,19,9.25v12.5 C18.961,22.401,19.56,23,20.25,23h13.5c0.69,0,1.25-0.56,1.25-1.25V9.25C35,8.56,34.44,8,33.75,8L33.75,8z"/></g><g><path fill="#dff0fe" d="M19.5 11.5H34.5V19.5H19.5z"/><path fill="#4788c7" d="M34,12v7H20v-7H34 M35,11H19v9h16V11L35,11z"/></g></svg>