<svg xmlns="http://www.w3.org/2000/svg"  viewBox="0 0 100 100" width="400px" height="400px"><path fill="#78a2d2" d="M17 66H29V83H17z"/><path fill="#f9e65c" d="M35 52H47V83H35z"/><path fill="#60be92" d="M71 18H83V83H71z"/><path fill="#f15b6c" d="M53 36H65V83H53z"/><path fill="none" stroke="#1f212b" stroke-linejoin="round" stroke-miterlimit="10" stroke-width="2" d="M17 66H29V83H17zM35 52H47V83H35zM71 18H83V83H71zM53 36H65V83H53z"/><path fill="none" stroke="#1f212b" stroke-linecap="round" stroke-linejoin="round" stroke-miterlimit="10" stroke-width="2" d="M13 83L87 83"/><path fill="none" stroke="#1f212b" stroke-linecap="round" stroke-linejoin="round" stroke-miterlimit="10" d="M20.5 69.5L20.5 71.5M20.5 74.5L20.5 80.5M38.5 55.5L38.5 57.5M38.5 60.5L38.5 79.5M74.5 21.5L74.5 23.5M74.5 33.5L74.5 79.5M56.5 39.5L56.5 41.5M56.5 44.5L56.5 48.5M74.5 26.5L74.5 30.5M56.5 51.5L56.5 79.5"/><path fill="none" stroke="#1f212b" stroke-linecap="round" stroke-linejoin="round" stroke-miterlimit="10" stroke-width="2" d="M46 18L57 18 57 29M57 18L21 54"/></svg>